<svg xmlns="http://www.w3.org/2000/svg" width="32.723" height="40" viewBox="0 0 32.723 40">
  <path id="Path_11303" data-name="Path 11303" d="M23.291,35.817a7.831,7.831,0,0,0-1.7-9.482l-.961-.864-.767,1.041c-.195.266-.579.7-.962.661-.3-.034-.746-.38-1.051-1.078a3.915,3.915,0,0,1,.517-3.875l1.623-2.2-2.713.34a10.163,10.163,0,0,0-4.421,1.919c-3.579,2.69-4.33,6.861-4.33,9.887a7.79,7.79,0,0,0,.9,3.652,14.027,14.027,0,0,1-7.087-12.18q0-.666.063-1.328a18.254,18.254,0,0,0,3.228,2.432l2.039,1.209L7.4,23.6A30.05,30.05,0,0,1,8.092,14.1c1.384-5.569,4.36-9.208,8.86-10.843a18.7,18.7,0,0,0-.088,8.152c.642,2.535,2.056,4.353,3.881,4.988a4.474,4.474,0,0,0,3.85-.462,6.506,6.506,0,0,0,1.875-1.789,10.325,10.325,0,0,1,1.33,6.5,9.384,9.384,0,0,1-1.149,3.491l-1,1.539,1.818.262a4.454,4.454,0,0,0,2.806-.585,14.047,14.047,0,0,1-6.981,10.457m-6.929,1.837a5.5,5.5,0,0,1-5.489-5.488c0-5.281,2.5-7.647,4.444-8.689a6.2,6.2,0,0,0,.386,3.557,3.835,3.835,0,0,0,2.939,2.47,3.015,3.015,0,0,0,2.131-.6,5.487,5.487,0,0,1-4.411,8.752M32.7,22.713l-.177-3.152-1.924,2.5a5.222,5.222,0,0,1-.9.873,12.375,12.375,0,0,0,.409-1.852,13.144,13.144,0,0,0-2.778-9.9L26.112,9.559l-.8,1.869c-.922,2.157-2.412,3.239-3.8,2.757-1.067-.372-1.933-1.592-2.378-3.349-.415-1.639-.656-4.523.552-8.955L20.2,0,18.3.428C11.885,1.873,7.563,6.429,5.8,13.6a31.9,31.9,0,0,0-.86,7.805,12.713,12.713,0,0,1-2.292-2.33L1.2,16.957.545,19.441A16.369,16.369,0,0,0,16.16,40c.067,0,.134,0,.2,0l.2,0a16.38,16.38,0,0,0,16.16-16.359c0-.3-.009-.611-.027-.925"/>
</svg>
